<svg xmlns="http://www.w3.org/2000/svg" viewBox="0 0 28 28.74"><defs><style>.cls-1{fill:#7b7878;}.cls-2{fill:#00435d;}.cls-3{fill:#fefef2;}.cls-4{fill:#01435d;}.cls-5{fill:#fdd700;}.cls-6{fill:#fed800;}.cls-7{fill:#fcf6ee;}.cls-8{fill:#04435b;}.cls-9{fill:#fefdfd;}.cls-10{fill:#c43f20;}.cls-11{fill:#09455e;}.cls-12{fill:#134b63;}.cls-13{fill:#0c475f;}</style></defs><title>mahasiswa</title><g id="Layer_2" data-name="Layer 2"><g id="Layer_1-2" data-name="Layer 1"><path xmlns="http://www.w3.org/2000/svg" class="cls-1" d="M.16,28.74a3.12,3.12,0,0,1,2.05-3.89c2.32-1,4.67-1.88,7-2.81l1-.39A6.88,6.88,0,0,1,7.69,18a.5.5,0,0,0-.49-.42c-1.07-.1-1.38-.77-1.35-1.75s-.17-2.1,1.2-2.39c.87-.18.54-.76.39-1.18s-.45-.49-.37-.83C7.39,10,6.5,9.54,5.45,9.07S3.16,7.94,2,7.36c-.31-.16-.69-.28-.67-.74S1.68,6.09,2,6C5.77,4,9.59,2.1,13.39.16a1.22,1.22,0,0,1,1.23,0Q20.28,3.06,26,5.9a1.22,1.22,0,0,1,.69,1.24,6.37,6.37,0,0,0,.62,3.52c.65,1.06.35,2.6.12,3.87-.16.86-1.16.38-1.79.46s-1-.16-.89-.71c.18-1.48-.59-3.08.7-4.46.45-.48.08-1.37.16-2.27L21.37,9.68a.66.66,0,0,0-.4.67,3.24,3.24,0,0,1-.45,2c-.25.37-.21.91.58,1.11,1.23.31,1,1.44,1,2.39s-.29,1.49-1.21,1.66c-.32.06-.59.08-.69.49a6.64,6.64,0,0,1-2.56,3.66c2.36.92,4.59,1.87,6.89,2.65A5.67,5.67,0,0,1,28,27.06c0,1.68,0,1.68-1.67,1.68Z"/><path class="cls-2" d="M7.06,8.62l-3.87-2c3.6-1.82,7-3.54,10.42-5.27a.88.88,0,0,1,.89.08L24.78,6.63,21.23,8.46c-.12-.1-.21-.15-.22-.2-.19-2.19-.19-2.2-2.38-2.68-.7-.16-1.41-.28-2.12-.36-.45-.05-1.09-.24-1.14.46s.62.6,1.07.69c.86.17,1.72.36,2.59.48.59.08.85.36.78,1,0,.24,0,.48,0,.72,0,.68.18,1.5-.13,2s-1.16-.06-1.78,0a7.11,7.11,0,0,0-3.28,1,.87.87,0,0,1-1.15.07,5.82,5.82,0,0,0-4.56-1c-.65.14-.71-.17-.74-.7-.16-3,0-3.22,3-3.56.2,0,.4,0,.6-.06.42-.09,1-.11.87-.74s-.58-.44-1-.41A21.63,21.63,0,0,0,7.81,6a.89.89,0,0,0-.75,1C7.09,7.46,7.06,7.94,7.06,8.62Z"/><path class="cls-3" d="M19.3,14.8a14.38,14.38,0,0,1-.17,2.89c-.59,2.49-2.69,3.94-5.6,3.84a4.93,4.93,0,0,1-4.76-4.12,39.81,39.81,0,0,1-.12-5c0-.56.36-.63.79-.66a5,5,0,0,1,3.8,1.16,1,1,0,0,0,1.53,0,5.09,5.09,0,0,1,3.44-1.16c.79,0,1.2.2,1.11,1.09A19.89,19.89,0,0,0,19.3,14.8Z"/><path class="cls-4" d="M26.76,27.59H21.09c-.19,0-.51,0-.48-.21a6.2,6.2,0,0,1,.92-2.67c.28-.43.84.06,1.26.21.83.29,1.64.61,2.45.94A2.38,2.38,0,0,1,26.76,27.59Z"/><path class="cls-5" d="M17.26,22.87c.21,0,.37.07.51.12,2.87,1,3.06,1.47,1.58,4.14-.47.85-1.29.38-1.93.41s-.48-.6-.48-1A16.14,16.14,0,0,1,17.26,22.87Z"/><path class="cls-6" d="M10.42,22.92a14.9,14.9,0,0,1,.31,3.66c0,.39.19,1-.51,1S8.77,28,8.31,27.1c0-.07-.05-.15-.08-.22C7,23.93,7.13,23.74,10.42,22.92Z"/><path class="cls-4" d="M1.26,27.59a2,2,0,0,1,1.32-1.66c.54-.26,1.1-.47,1.66-.68,2.3-.86,1.69-1.09,2.63,1.22.37.89.23,1.19-.79,1.14C4.51,27.54,2.91,27.59,1.26,27.59Z"/><path class="cls-4" d="M13.84,27.59a5.06,5.06,0,0,0-.83,0c-1.21.2-1.15-.6-1.09-1.37,0-.52,1.77-1.84,2.19-1.73a2.64,2.64,0,0,1,1.65,2.68c-.1.36-.32.41-.61.41H13.84Z"/><path class="cls-7" d="M15.84,24.52c-1.36-1.9-2.64-1.47-3.9,0a5.62,5.62,0,0,1-.26-2.15,8.68,8.68,0,0,0,3.72.14c.48-.12.64.08.6.56s0,.71,0,1.07Z"/><path class="cls-8" d="M26.08,13.8a4.19,4.19,0,0,1,0-2.77A3.87,3.87,0,0,1,26.08,13.8Z"/><path class="cls-9" d="M20.63,16.54c-.12-.27-.21-.37-.21-.47,0-.49-.19-1,.17-1.44,0,0,.27,0,.28.07A1.77,1.77,0,0,1,20.63,16.54Z"/><path class="cls-9" d="M7.57,15.54c-.11.29.2.86-.32.84s-.31-.57-.3-.9-.15-.88.36-.84S7.46,15.23,7.57,15.54Z"/><path class="cls-10" d="M14.58,5.55c-.05.36-.2.58-.53.61a.55.55,0,0,1-.63-.56A.53.53,0,0,1,13.93,5C14.32,5,14.49,5.27,14.58,5.55Z"/><path class="cls-11" d="M13.95,18.86a8.2,8.2,0,0,1-.9-.35.55.55,0,0,1-.33-.69c.11-.29.47-.54.65-.35.56.61,1.48-.65,1.88.4.12.31-.13.54-.38.67A7.57,7.57,0,0,1,13.95,18.86Z"/><path class="cls-12" d="M12.28,14.95c-.08.33-.2.61-.6.62a.59.59,0,0,1-.69-.63.6.6,0,0,1,.7-.63C12.08,14.33,12.21,14.62,12.28,14.95Z"/><path class="cls-13" d="M17,14.92c-.06.43-.28.67-.7.65a.55.55,0,0,1-.56-.62.57.57,0,0,1,.56-.62A.64.64,0,0,1,17,14.92Z"/></g></g></svg>